# xmcd
#
# Track frame offsets:
#	150
#	12883
#	23484
#	34413
#	43785
#	57288
#	67489
#	79992
#	96804
#	107928
#	119027
#	129440
#	138746
#	148574
#	161380
#	171146
#	181932
#	194999
#	206207
#	220720
#	234770
#	245249
#	255749
#	267207
#	278000
#	289779
#	298305
#	311041
#
# Disc length: 4310 seconds
#
# Revision: 2
# Processed by: cddbd v1.5.2PL0 Copyright (c) Steve Scherf et al.
# Submitted via: audiograbber 1.83.01
#
DISCID=c010d41c
DTITLE=Various Artist - Country Classic Tracks
DYEAR=1900
DGENRE=Country Classics
TTITLE0=Freddie Hart - The keys In The Mailbox
TTITLE1=Mel Tillis - Goodbye Wheeling
TTITLE2=Webb Pierce - Crazy Wild Desires
TTITLE3=Marty Robbibs - The Shoe Goes On The Other Foot
TTITLE4=Carl Smith - Take My Ring Off Your Finger
TTITLE5=Leon Everette - Soul Searching
TTITLE6=Eddy Arnold - Thats How Much I Love You
TTITLE7=Allison Krauss - Teardrops Will Kiss The Morning Dew
TTITLE8=Barbara Mandrell - I'll Be Your Jukebox Tonight
TTITLE9=Bill Anderson - Wild Weekend
TTITLE10=Billy Walker - Charlies Shoes
TTITLE11=Buck Owens - Love's Gonna Live Here
TTITLE12=Carl Belew - Yor're Driving Me Out Of My Mind
TTITLE13=Charley Pride - I'd Rather Love You
TTITLE14=Charlie Rich - Mohair Sam
TTITLE15=Claude Grey - Rocking My memories To Sleep
TTITLE16=Con Huley - I've Been Waiting For All My Life
TTITLE17=Connie Smith - The Hinges On Then Door
TTITLE18=Conway Twitty - Fifteen Years Ago
TTITLE19=Dan Seals - God Must Be A Cowboy
TTITLE20=Don Gibson - Sweet Dreams
TTITLE21=Stonewall Jackson - Why I'm Walking
TTITLE22=Johnny Rodriquez - Pass Me By
TTITLE23=Johnny Paycheck - A-11
TTITLE24=Wanda Jackson - If I Cried Every Time You Hurt Me
TTITLE25=Waylon Jennings - Nashville Rebel
TTITLE26=Willie Nelson - Mr.Record Man
TTITLE27=Wynn Stewart - Wisful Thinking
EXTD=
EXTT0=
EXTT1=
EXTT2=
EXTT3=
EXTT4=
EXTT5=
EXTT6=
EXTT7=
EXTT8=
EXTT9=
EXTT10=
EXTT11=
EXTT12=
EXTT13=
EXTT14=
EXTT15=
EXTT16=
EXTT17=
EXTT18=
EXTT19=
EXTT20=
EXTT21=
EXTT22=
EXTT23=
EXTT24=
EXTT25=
EXTT26=
EXTT27=
PLAYORDER=
